<svg xmlns="http://www.w3.org/2000/svg"><symbol xmlns="http://www.w3.org/2000/svg" viewBox="0 0 771.3 109.9" id="crossing-parallels-worm"><title>crossing-parallels-worm</title> <g> <path d="M751.3,96.8h-25.1c-1.7,0-2.6-1.5-2.6-4.5V65.9V2h-17.3v63.9v29.3c0,9.7,5.8,14.6,17.3,14.6
		c0,0,25.1,0,25.1,0c4.1,0,7.4-0.2,10-0.6c2.6-0.4,4.8-1.1,6.5-1.9c1.6-0.9,3-2.3,4.2-4.5c1.2-2.1,1.8-4.2,1.8-6.2V64.2
		c0-2.1-0.3-3.9-1-5.3c-0.7-1.4-1.9-3-3.8-4.8l-14.1-12.5c-1.6-1.5-2.6-2.7-3-3.6c-0.4-0.9-0.6-2.4-0.6-4.6V17.9
		c0-1.8,0.2-3.1,0.6-3.8c0.4-0.7,1-1,2-1c0.7,0,1.4,0.3,2.1,0.8c0.5,0.4,0.9,1.1,1,1.9c0.1,0.9,0.2,2.8,0.2,5.9v15.8h16.8V15.5
		c0-10.3-6.6-15.5-19.8-15.5c-7.1,0-12.3,1.1-15.4,3.2c-3.1,2.1-4.6,5.8-4.6,10.9v22.6c0,2.3,0.2,4.3,0.6,6c0.4,1.7,1.1,3.3,2.3,5
		c1.2,1.7,2.9,3.5,5,5.4c2.2,2,5.1,4.4,8.9,7.3c1.4,1.1,2.5,2,3.3,2.8c0.8,0.8,1.4,1.6,1.8,2.4c0.4,0.8,0.7,1.7,0.9,2.8
		c0.2,1.1,0.2,2.3,0.2,3.8v18.6c0,2.3-0.2,3.9-0.7,4.8C753.3,96.4,752.5,96.8,751.3,96.8z"/> <polygon points="667.3,108.5 700.6,108.5 700.6,95.4 685,95.4 685,60 700.6,60 700.6,46.7 685.2,46.7 685.2,14.9 
		700.6,14.9 700.6,1.8 667.3,1.8 	"/> <path d="M650.6,94.5L651.1,2L633,1.9l-0.5,93.4c0,8.8,5.7,13.3,17.2,13.4l14.1,0.1l0.1-12.8L652.8,96
		C651.7,95.9,651,95.5,650.6,94.5z"/> <path d="M614.7,94.5V2h-18.1v93.4c0,8.9,5.8,13.3,17.3,13.3H628V95.9h-11.1C615.8,95.9,615.1,95.4,614.7,94.5z"/> <path d="M553.7,1.8l-9.4,106.7h14.4l2.6-26.7h10.2l2.6,26.7h17.1L580.7,1.8H553.7z M561.7,69.1l4.2-53.1l5.1,53.1
		H561.7z"/> <path d="M539.4,100.5V68.8c0-2.6-0.1-4.6-0.3-6.2c-0.2-1.6-0.6-2.9-1.3-4c-0.6-1.1-1.6-1.9-2.8-2.6
		c-1.2-0.7-2.9-1.4-4.9-2c2.1-1.2,3.7-2.1,4.7-2.9c1-0.7,1.8-1.5,2.3-2.4c0.6-1,1.2-2.6,1.6-4.8c0.4-2.2,0.6-4.5,0.6-6.7V18.7
		c0-3.4-0.6-6.4-1.9-8.9c-1.3-2.5-3.1-4.4-5.4-5.7c-1-0.5-1.9-1-2.8-1.3c-0.9-0.3-1.9-0.6-3.1-0.7c-1.2-0.2-2.6-0.3-4.4-0.3
		c-1.8-0.1-4.1-0.1-7-0.1H498v106.7h17.8v-47c0-1.4,0.9-2.1,2.7-2.1c2.2,0,3.4,1.9,3.4,5.8V96c0,1.7,0,3.1,0.1,4.3
		c0.1,1.2,0.2,2.2,0.3,3.1c0.2,0.9,0.4,1.7,0.6,2.5c0.3,0.7,0.6,1.6,1,2.6H542c-1.2-1.5-1.9-2.7-2.2-3.7
		C539.6,103.8,539.4,102.4,539.4,100.5z M521.8,44c0,2.5-1.2,3.7-3.7,3.7c-0.4,0-0.9,0-1.3,0c-0.4,0-0.9-0.1-1.4-0.2v-31
		c0-1.2,0.1-2,0.4-2.4c0.3-0.4,0.8-0.6,1.7-0.6c1.2,0,2.2,0.4,3,1.1c0.9,0.7,1.3,1.7,1.3,2.9V44z"/> <path d="M456.1,1.8l-9.4,106.7H461l2.6-26.7h10.2l2.6,26.7h17.1L483.1,1.8H456.1z M464.1,69.1l4.2-53.1l5.1,53.1
		H464.1z"/> <path d="M437.4,4.5c-1-0.5-1.9-1-3-1.4c-1-0.4-2.1-0.7-3.4-0.9c-1.2-0.2-2.7-0.3-4.3-0.4c-1.7-0.1-3.7-0.1-6-0.1
		h-17.4v106.7h17.6v-39h2.9c5.3,0,10-1,14.1-2.9c2.5-1.2,4.2-3,5.4-5.5c1.1-2.5,1.7-5.9,1.7-10.2V21.4c0-4.6-0.6-8.2-1.7-10.8
		C442.1,8,440.2,6,437.4,4.5z M427.2,51.7c0,3.9-1.4,5.9-4.2,5.9c-0.5,0-1-0.1-1.5-0.4c-0.5-0.3-0.7-0.6-0.7-0.9V14.4
		c0-0.6,0.7-1,2.2-1c1.6,0,2.7,0.5,3.3,1.5c0.6,1,0.9,2.8,0.9,5.4V51.7z"/> <path d="M367.3,4.2c-3.5-2.8-9-4.2-16.7-4.2c-3.1,0-5.9,0.3-8.6,1c-2.6,0.7-4.7,1.7-6.2,3c-3.1,2.3-4.6,7.4-4.6,15
		v73.3c0,5.7,1.5,10,4.5,13c3,3,7.3,4.6,12.8,4.6c3.4,0,6.2-0.6,8.4-1.7c2.2-1.1,4.5-3.1,6.8-6l1.9,6.2h6.9v-52H352v12.6h3.7v22.4
		c0,2-0.2,3.4-0.7,4.2c-0.5,0.8-1.3,1.2-2.5,1.2c-1.5,0-2.5-0.4-3-1.3c-0.5-0.9-0.8-2.4-0.8-4.6V18.9c0-3.7,1-5.6,3-5.6
		c1.5,0,2.5,0.5,3.1,1.4c0.6,0.9,0.9,2.4,0.9,4.6v18.9h16.8V17.6C372.5,11.4,370.7,6.9,367.3,4.2z"/> <polygon points="311.4,45.3 312.6,70.2 300.3,1.8 281.9,1.8 281.9,108.5 296,108.5 296,63.5 294.4,36.6 
		307.4,108.5 325.1,108.5 325.1,1.8 311.4,1.8 	"/> <rect x="257.8" y="1.8" width="17.8" height="106.7"/> <path d="M232.1,0c-7,0-12,1.1-15,3.2c-3,2.1-4.5,5.8-4.5,10.9v58.1v2.3v16.2c0,2.3-0.2,3.9-0.7,4.8
		c-0.5,0.9-1.3,1.3-2.5,1.3c-1.7,0-2.6-1.5-2.6-4.5V54h-17.3v41.2c0,9.7,5.8,14.6,17.3,14.6c4.1,0,7.4-0.2,10-0.6
		c2.6-0.4,4.8-1.1,6.5-1.9c1.6-0.9,3-2.3,4.2-4.5c1.2-2.1,1.8-4.2,1.8-6.2V71.3h0V44.2V17.9c0-1.8,0.2-3.1,0.6-3.8c0.4-0.7,1-1,2-1
		c0.7,0,1.4,0.3,2.1,0.8c0.5,0.4,0.9,1.1,1,1.9c0.1,0.9,0.2,2.8,0.2,5.9v15.8h16.8V15.5C251.9,5.2,245.3,0,232.1,0z"/> <path d="M189.5,37.6h16.8V15.5c0-10.3-6.6-15.5-19.8-15.5c-7,0-12,1.1-15,3.2c-3,2.1-4.5,5.8-4.5,10.9v58.1v2.3
		v16.2c0,2.3-0.2,3.9-0.7,4.8c-0.5,0.9-1.3,1.3-2.5,1.3c-1.7,0-2.6-1.5-2.6-4.5V54h-17.3v41.2c0,9.7,5.8,14.6,17.3,14.6
		c4.1,0,7.4-0.2,10-0.6c2.6-0.4,4.8-1.1,6.5-1.9c1.6-0.9,3-2.3,4.2-4.5c1.2-2.1,1.8-4.2,1.8-6.2V71.3v-7.1v-20V17.9
		c0-1.8,0.2-3.1,0.6-3.8c0.4-0.7,1-1,2-1c0.7,0,1.4,0.3,2.1,0.8c0.5,0.4,0.9,1.1,1,1.9c0.1,0.9,0.2,2.8,0.2,5.9V37.6z"/> <path d="M115.5,0.5c-6.8,0-11.7,1.4-14.6,4.2c-2.9,2.8-4.3,7.4-4.3,13.8V93c0,3.7,1.2,7.3,3.7,10.7
		c1.6,2,3.7,3.5,6.2,4.4c2.5,0.9,5.8,1.4,10,1.4c7.4,0,12.6-1.4,15.6-4.2c3-2.8,4.6-7.7,4.6-14.5V20c0-6.8-1.7-11.8-5-14.9
		C128.2,2,122.9,0.5,115.5,0.5z M119.5,92.3c0,2.8-0.9,4.2-2.7,4.2c-2.5,0-3.7-2.1-3.7-6.4V18.4c0-3.4,1-5.1,3-5.1
		c2.2,0,3.4,1.7,3.4,5.1V92.3z"/> <path d="M89.4,100.5V68.8c0-2.6-0.1-4.6-0.3-6.2c-0.2-1.6-0.6-2.9-1.3-4c-0.6-1.1-1.6-1.9-2.8-2.6
		c-1.2-0.7-2.9-1.4-4.9-2c2.1-1.2,3.7-2.1,4.7-2.9c1-0.7,1.8-1.5,2.3-2.4c0.6-1,1.2-2.6,1.6-4.8c0.4-2.2,0.6-4.5,0.6-6.7V18.7
		c0-3.4-0.6-6.4-1.9-8.9c-1.3-2.5-3.1-4.4-5.4-5.7c-1-0.5-1.9-1-2.8-1.3c-0.9-0.3-1.9-0.6-3.1-0.7C75,2,73.5,1.9,71.8,1.8
		c-1.8-0.1-4.1-0.1-7-0.1H48v106.7h17.8v-47c0-1.4,0.9-2.1,2.7-2.1c2.2,0,3.4,1.9,3.4,5.8V96c0,1.7,0,3.1,0.1,4.3
		c0.1,1.2,0.2,2.2,0.3,3.1c0.2,0.9,0.4,1.7,0.6,2.5c0.3,0.7,0.6,1.6,1,2.6H92c-1.2-1.5-1.9-2.7-2.2-3.7
		C89.6,103.8,89.4,102.4,89.4,100.5z M71.8,44c0,2.5-1.2,3.7-3.7,3.7c-0.4,0-0.9,0-1.3,0c-0.4,0-0.9-0.1-1.4-0.2v-31
		c0-1.2,0.1-2,0.4-2.4c0.3-0.4,0.8-0.6,1.7-0.6c1.2,0,2.2,0.4,3,1.1c0.9,0.7,1.3,1.7,1.3,2.9V44z"/> <path d="M35.7,3.2C34,2,32.1,1.2,30,0.7C27.9,0.2,24.9,0,21,0C17,0,13.7,0.4,11,1.1C8.4,1.9,6.2,3.1,4.6,4.7
		C2.9,6.4,1.7,8.6,1,11.3c-0.7,2.7-1,6.1-1,10v69.6c0,6.5,1.6,11.2,4.8,14.1c3.2,2.9,8.5,4.3,15.8,4.3c7.8,0,13.2-1.4,16.3-4.3
		c3.1-2.9,4.6-7.9,4.6-15V64.6H24.3v25.6c0,4.1-1.1,6.1-3.4,6.1c-1.8,0-2.7-1.3-2.7-4l-0.2-73.9c0-2,0.2-3.4,0.7-4.2
		c0.5-0.7,1.3-1.1,2.5-1.1c1.2,0,2,0.5,2.4,1.4c0.4,0.9,0.6,2.4,0.6,4.6v18.6h17.4v-20c0-3.7-0.5-6.7-1.4-8.8
		C39.5,6.7,37.9,4.8,35.7,3.2z"/> </g> </symbol><symbol xmlns="http://www.w3.org/2000/svg" viewBox="0 0 24 24" id="icon-facebook"><title>Facebook icon</title><path d="M22.676 0H1.324C.593 0 0 .593 0 1.324v21.352C0 23.408.593 24 1.324 24h11.494v-9.294H9.689v-3.621h3.129V8.41c0-3.099 1.894-4.785 4.659-4.785 1.325 0 2.464.097 2.796.141v3.24h-1.921c-1.5 0-1.792.721-1.792 1.771v2.311h3.584l-.465 3.63H16.56V24h6.115c.733 0 1.325-.592 1.325-1.324V1.324C24 .593 23.408 0 22.676 0"/></symbol><symbol xmlns="http://www.w3.org/2000/svg" viewBox="0 0 24 24" id="icon-instagram"><title>Instagram icon</title><path d="M12 0C8.74 0 8.333.015 7.053.072 5.775.132 4.905.333 4.14.63c-.789.306-1.459.717-2.126 1.384S.935 3.35.63 4.14C.333 4.905.131 5.775.072 7.053.012 8.333 0 8.74 0 12s.015 3.667.072 4.947c.06 1.277.261 2.148.558 2.913.306.788.717 1.459 1.384 2.126.667.666 1.336 1.079 2.126 1.384.766.296 1.636.499 2.913.558C8.333 23.988 8.74 24 12 24s3.667-.015 4.947-.072c1.277-.06 2.148-.262 2.913-.558.788-.306 1.459-.718 2.126-1.384.666-.667 1.079-1.335 1.384-2.126.296-.765.499-1.636.558-2.913.06-1.28.072-1.687.072-4.947s-.015-3.667-.072-4.947c-.06-1.277-.262-2.149-.558-2.913-.306-.789-.718-1.459-1.384-2.126C21.319 1.347 20.651.935 19.86.63c-.765-.297-1.636-.499-2.913-.558C15.667.012 15.26 0 12 0zm0 2.16c3.203 0 3.585.016 4.85.071 1.17.055 1.805.249 2.227.415.562.217.96.477 1.382.896.419.42.679.819.896 1.381.164.422.36 1.057.413 2.227.057 1.266.07 1.646.07 4.85s-.015 3.585-.074 4.85c-.061 1.17-.256 1.805-.421 2.227-.224.562-.479.96-.899 1.382-.419.419-.824.679-1.38.896-.42.164-1.065.36-2.235.413-1.274.057-1.649.07-4.859.07-3.211 0-3.586-.015-4.859-.074-1.171-.061-1.816-.256-2.236-.421-.569-.224-.96-.479-1.379-.899-.421-.419-.69-.824-.9-1.38-.165-.42-.359-1.065-.42-2.235-.045-1.26-.061-1.649-.061-4.844 0-3.196.016-3.586.061-4.861.061-1.17.255-1.814.42-2.234.21-.57.479-.96.9-1.381.419-.419.81-.689 1.379-.898.42-.166 1.051-.361 2.221-.421 1.275-.045 1.65-.06 4.859-.06l.045.03zm0 3.678c-3.405 0-6.162 2.76-6.162 6.162 0 3.405 2.76 6.162 6.162 6.162 3.405 0 6.162-2.76 6.162-6.162 0-3.405-2.76-6.162-6.162-6.162zM12 16c-2.21 0-4-1.79-4-4s1.79-4 4-4 4 1.79 4 4-1.79 4-4 4zm7.846-10.405c0 .795-.646 1.44-1.44 1.44-.795 0-1.44-.646-1.44-1.44 0-.794.646-1.439 1.44-1.439.793-.001 1.44.645 1.44 1.439z"/></symbol><symbol xmlns="http://www.w3.org/2000/svg" viewBox="0 0 24 24" id="icon-twitter"><title>Twitter icon</title><path d="M23.954 4.569c-.885.389-1.83.654-2.825.775 1.014-.611 1.794-1.574 2.163-2.723-.951.555-2.005.959-3.127 1.184-.896-.959-2.173-1.559-3.591-1.559-2.717 0-4.92 2.203-4.92 4.917 0 .39.045.765.127 1.124C7.691 8.094 4.066 6.13 1.64 3.161c-.427.722-.666 1.561-.666 2.475 0 1.71.87 3.213 2.188 4.096-.807-.026-1.566-.248-2.228-.616v.061c0 2.385 1.693 4.374 3.946 4.827-.413.111-.849.171-1.296.171-.314 0-.615-.03-.916-.086.631 1.953 2.445 3.377 4.604 3.417-1.68 1.319-3.809 2.105-6.102 2.105-.39 0-.779-.023-1.17-.067 2.189 1.394 4.768 2.209 7.557 2.209 9.054 0 13.999-7.496 13.999-13.986 0-.209 0-.42-.015-.63.961-.689 1.8-1.56 2.46-2.548l-.047-.02z"/></symbol><symbol xmlns="http://www.w3.org/2000/svg" viewBox="0 0 57.6 87.3" id="logo-mondriaan-fund"><title>logo-mondriaan-fund</title> <polygon points="55.7,53.6 55.7,0 43.2,0 29.1,38.2 15,0 1.9,0 1.9,53.6 11.3,53.6 11.3,14.9 25.2,52.8 32.3,52.8 46.2,15.3 
	46.2,53.6 55.7,53.6 "/> <path d="M55.9,70.7v-3.8c0-1.2-0.7-2.1-2-2.1c-0.7,0-1.4,0.3-1.7,0.9l-0.1-0.7H51v5.8h1.4v-2.3c0-0.5,0-1.1,0.2-1.5
	c0.2-0.4,0.5-0.7,1-0.7c0.7,0,1,0.4,1,1.1v3.5H55.9L55.9,70.7z M47.9,68.4c0,0.9-0.6,1.3-1.5,1.3c-0.4,0-0.8-0.3-0.8-0.7
	c0-0.5,0.4-0.7,0.8-0.8l1.5-0.1V68.4L47.9,68.4z M49.8,70.6v-1c0,0-0.1,0-0.2,0c-0.2,0-0.3-0.1-0.3-0.4v-2.1c0-0.4,0-0.8-0.2-1.2
	c-0.3-0.9-1.2-1.2-2.2-1.2c-1.3,0-2.3,0.6-2.4,1.9h1.3c0-0.5,0.4-0.8,1.1-0.8c0.8,0,1,0.4,1,0.9v0.4l-1.7,0.1
	c-1.1,0.1-1.9,0.7-1.9,1.8c0,0.9,0.7,1.8,2.1,1.8c0.8,0,1.5-0.4,1.7-0.9c0,0.4,0.4,0.8,1,0.8C49.4,70.8,49.5,70.7,49.8,70.6
	 M41.7,68.4c0,0.9-0.6,1.3-1.5,1.3c-0.4,0-0.8-0.3-0.8-0.7c0-0.5,0.4-0.7,0.8-0.8l1.5-0.1V68.4L41.7,68.4z M43.6,70.6v-1
	c0,0-0.1,0-0.2,0c-0.2,0-0.3-0.1-0.3-0.4v-2.1c0-0.4,0-0.8-0.2-1.2c-0.3-0.9-1.2-1.2-2.2-1.2c-1.3,0-2.3,0.6-2.4,1.9h1.3
	c0-0.5,0.4-0.8,1.1-0.8c0.8,0,1,0.4,1,0.9v0.4L40,67.2c-1.1,0.1-1.9,0.7-1.9,1.8c0,0.9,0.7,1.8,2.1,1.8c0.8,0,1.5-0.4,1.8-0.9
	c0,0.4,0.4,0.8,1,0.8C43.2,70.8,43.3,70.7,43.6,70.6 M36.8,64.9h-1.4v5.8h1.4V64.9L36.8,64.9z M36.8,62.7h-1.5v1.4h1.5V62.7
	L36.8,62.7z M34.4,66.2v-1.3c-0.1,0-0.3,0-0.4,0c-0.7,0-1.4,0.3-1.6,0.9l-0.1-0.9H31v5.8h1.4v-2.9c0-0.9,0.5-1.6,1.5-1.6
	C34,66.1,34.2,66.2,34.4,66.2 M28,67.8c0,0.8-0.2,1.9-1.3,1.9c-0.4,0-0.7-0.2-0.9-0.5c-0.3-0.4-0.4-0.9-0.4-1.4c0-0.5,0.1-1,0.4-1.4
	c0.2-0.3,0.5-0.5,0.9-0.5C27.7,65.9,28,67,28,67.8 M29.3,70.7v-8h-1.4v2.6c-0.2-0.3-0.8-0.5-1.5-0.5c-0.6,0-1.1,0.2-1.4,0.5
	c-0.7,0.6-1,1.4-1,2.6c0,1.1,0.3,1.9,1,2.5c0.4,0.3,0.8,0.5,1.4,0.5c0.6,0,1.3-0.2,1.6-0.8l0.1,0.6H29.3L29.3,70.7z M22.7,70.7v-3.8
	c0-1.2-0.7-2.1-1.9-2.1c-0.7,0-1.4,0.3-1.7,0.9L19,64.9h-1.2v5.8h1.4v-2.3c0-0.5,0-1.1,0.2-1.5c0.2-0.4,0.5-0.7,1-0.7
	c0.7,0,1,0.4,1,1.1v3.5H22.7L22.7,70.7z M15.1,67.8c0,0.5-0.1,1.1-0.4,1.5c-0.2,0.2-0.5,0.4-0.9,0.4s-0.7-0.2-0.9-0.4
	c-0.3-0.4-0.4-0.9-0.4-1.5c0-0.5,0.1-1.1,0.4-1.5c0.2-0.2,0.5-0.4,0.9-0.4s0.7,0.2,0.9,0.4C15,66.7,15.1,67.3,15.1,67.8 M16.5,67.8
	c0-1-0.2-1.6-0.7-2.1c-0.4-0.5-1.1-0.9-2-0.9c-0.9,0-1.6,0.4-2,0.9c-0.4,0.5-0.7,1.2-0.7,2.1c0,1,0.2,1.6,0.7,2.1
	c0.4,0.5,1.1,0.9,2,0.9c0.9,0,1.6-0.4,2-0.9C16.2,69.4,16.5,68.8,16.5,67.8 M9.8,70.7v-3.9c0-1.2-0.6-2-1.9-2
	c-0.8,0-1.4,0.3-1.7,0.9c-0.3-0.6-0.8-0.9-1.6-0.9c-0.8,0-1.3,0.4-1.6,0.9l-0.1-0.8H1.7v5.8h1.4v-3.1c0-0.7,0.4-1.5,1.1-1.5
	c0.7,0,0.9,0.4,0.9,1.1v3.6h1.4v-3.1c0-0.7,0.3-1.5,1.1-1.5c0.7,0,0.9,0.4,0.9,1.1v3.6H9.8L9.8,70.7z"/> <polyline points="0,72.1 57.6,72.1 57.6,73.3 57.6,73.3 0,73.3 "/> <polygon points="42.5,87.3 15.8,87.3 15.8,86.1 42.5,86.1 42.5,87.3 "/> <path d="M21.4,77.6v-1.1c-0.4-0.1-0.7-0.1-1.1-0.1c-1.2,0-2,0.8-2,1.8v0.6h-1v1.1h1v4.6h1.4v-4.6h1.5v-1.1h-1.5v-0.5
	c0-0.4,0.3-0.7,0.8-0.7C20.9,77.5,21.1,77.5,21.4,77.6L21.4,77.6z M27.1,84.5v-5.8h-1.4v3c0,0.5-0.1,1-0.4,1.3
	c-0.2,0.2-0.4,0.3-0.7,0.3c-0.7,0-1-0.4-1-1.1v-3.5h-1.4v3.8c0,1.2,0.8,2.1,2,2.1c0.7,0,1.4-0.3,1.7-0.9l0.1,0.8H27.1L27.1,84.5z
	 M33.6,84.5v-3.8c0-1.2-0.7-2.1-1.9-2.1c-0.7,0-1.4,0.3-1.7,0.9l-0.1-0.7h-1.2v5.8h1.4v-2.3c0-0.5,0-1.1,0.2-1.5
	c0.2-0.4,0.5-0.7,1-0.7c0.7,0,1,0.4,1,1.1v3.5H33.6L33.6,84.5z M40.2,84.5v-8h-1.4v2.6c-0.2-0.3-0.8-0.5-1.5-0.5
	c-0.6,0-1.1,0.2-1.4,0.5c-0.7,0.6-1,1.4-1,2.6c0,1.1,0.3,1.9,1,2.5c0.4,0.3,0.8,0.5,1.4,0.5c0.6,0,1.3-0.2,1.6-0.8l0.1,0.6H40.2
	L40.2,84.5z M38.8,81.6c0,0.8-0.2,1.9-1.3,1.9c-0.4,0-0.7-0.2-0.9-0.5c-0.3-0.4-0.4-0.9-0.4-1.4c0-0.5,0.1-1,0.4-1.4
	c0.2-0.3,0.5-0.5,0.9-0.5C38.6,79.8,38.8,80.8,38.8,81.6L38.8,81.6z"/> </symbol><symbol xmlns="http://www.w3.org/2000/svg" viewBox="0 0 149.2 32.2" id="logo-todaysart"><title>logo-todaysart</title> <style type="text/css"> .st0{fill:none;} </style> <path class="st0" d="M20.1,5h-7.4v20.7H7.4V5H0V0.7h20.1V5z"/> <path class="st0" d="M16,16.9c0-5.7,3.4-9.2,8.9-9.2c5.3,0,8.8,3.4,8.8,9.2c0,5.7-3.6,9.2-8.9,9.2C19.4,26.1,16,22.6,16,16.9z
	 M21.4,16.9c0,3.4,1,5.7,3.5,5.7c2.6,0,3.5-2.5,3.5-5.7c0-3.4-0.9-5.7-3.5-5.7C22.3,11.3,21.4,13.7,21.4,16.9z"/> <path class="st0" d="M52.4,25.7h-5v-2.6h-0.1c-0.9,1.5-2.5,3-5.2,3c-4.6,0-7.4-2.9-7.4-9c0-6.2,3.3-9.3,7.6-9.3c2.2,0,4,1,4.8,2.7
	h0.1V0h5.2V25.7z M47.3,16.2c0-3.1-1.4-4.8-3.5-4.8c-2.3,0-3.7,1.8-3.7,5.6c0,3.6,1.1,5.6,3.6,5.6c2.4,0,3.6-1.9,3.6-4.4V16.2z"/> <path class="st0" d="M54.4,13.4c0.2-3.5,3-5.6,7.5-5.6c5.6,0,7.6,2.3,7.6,7v6c0,0.9,0.3,1.3,1.4,1.3v3.6h-1.7
	c-2.5,0-3.7-0.5-4.3-2.4h-0.1c-1.1,1.6-2.8,2.6-5.3,2.6c-3.6,0-5.9-1.9-5.9-5.2c0-2,0.9-3.5,2.6-4.4c1.9-1,4.5-1.1,8.2-1.3v-0.9
	c0-1.9-0.8-2.9-2.6-2.9c-1.7,0-2.5,0.9-2.6,2.2H54.4z M64.5,18.3v-0.6c-2.7,0.2-4.1,0.4-4.9,0.9c-0.6,0.4-0.8,1-0.8,1.8
	c0,1.3,0.9,2.2,2.3,2.2C62.8,22.6,64.5,21.2,64.5,18.3z"/> <path class="st0" d="M69.7,8.2H75l2.9,9.2c0.6,1.9,0.8,3.4,0.8,3.4h0.1c0,0,0.2-1.5,0.7-3.4l2.7-9.2h5l-6.1,18
	c-1.4,4.1-3.1,5.9-7.6,5.9c-1.7,0-2.5-0.2-2.6-0.2v-3.8c0.3,0.1,1,0.2,1.8,0.2c2,0,2.9-0.6,3.4-2.1l0.1-0.4L69.7,8.2z"/> <path class="st0" d="M96.5,13.1c-0.1-1.1-0.9-2-2.5-2c-1.6,0-2.4,0.8-2.4,1.8c0,1,0.5,1.6,2,1.8l3,0.4c3.2,0.4,5,2,5,5.1
	c0,3.9-3.2,6-7.6,6c-5.2,0-7.4-2.4-7.7-5.6h4.8c0.1,1.2,0.9,2.2,2.9,2.2c1.7,0,2.8-0.7,2.8-1.9c0-1-0.5-1.6-2.1-1.8l-2.8-0.4
	c-3.3-0.5-5.1-2.1-5.1-5.2c0-3,2.3-5.7,7.2-5.7c4.6,0,6.8,2.2,7,5.3H96.5z"/> <path class="st0" d="M118.4,20.1h-9.2l-1.8,5.5h-5.1L111,0.7h6l8.8,24.9h-5.6L118.4,20.1z M112.8,9l-2.3,7.3h6.6L114.8,9
	c-0.7-2.2-0.9-3.6-0.9-3.6h-0.1C113.8,5.5,113.5,6.9,112.8,9z"/> <path class="st0" d="M126.7,8.2h4.9v3.7h0.1c1-2.6,3.4-3.8,5.8-3.8h0.3v4.1h-0.9c-3.2,0-5,1.5-5,4.8v8.6h-5.1V8.2z"/> <path class="st0" d="M145.3,3.3v4.8h3.9v4.2h-3.8v7.3c0,1.8,0.7,2.5,2.4,2.5c0.6,0,1.5-0.1,1.5-0.1v3.8c-0.7,0.1-2,0.2-3.5,0.2
	c-3.4,0-5.5-1.5-5.5-5.4v-8.3h-2.6V8.1h0.6c2.2,0,2.6-0.3,2.6-3.5V3.3H145.3z"/> </symbol><symbol xmlns="http://www.w3.org/2000/svg" viewBox="0 0 510.01862 200.04297" id="logo-tudelft"><title>logo-tudelft</title>  <g transform="translate(-125.99068,-413.3407)" id="logo-tudelft-layer1"> <g transform="matrix(1.25,0,0,-1.25,-22.0475,1058.5434)" id="logo-tudelft-g3165"> <g transform="matrix(4.0963091,0,0,4.0963091,237.27758,372.13738)" id="logo-tudelft-g3315"> <path d="m 0,0 c 2.492,0 3.846,1.654 3.846,3.976 l 0,11.842 5.3,0 0,-12.106 C 9.094,-1.618 4.825,-3.71 0,-3.71 c -4.825,0 -9.094,2.092 -9.147,7.422 l 0,12.106 5.301,0 0,-11.842 C -3.846,1.654 -2.492,0 0,0" id="logo-tudelft-path3317"/> </g> <g transform="matrix(4.0963091,0,0,4.0963091,381.13995,391.02137)" id="logo-tudelft-g3319"> <path d="M 0,0 C 0.018,2.075 1.274,3.95 3.37,3.95 5.808,3.95 6.761,2.279 6.761,0 L 0,0 z m 9.414,-1.75 0,1.247 c 0,3.684 -2.086,6.283 -5.86,6.283 -4.214,0 -6.177,-3.261 -6.177,-7.158 0,-3.924 1.698,-6.945 5.966,-6.945 3.181,0 5.514,1.509 5.912,4.532 l -2.65,0 C 6.312,-5.726 5.332,-6.494 3.37,-6.494 c -2.573,0 -3.427,2.288 -3.427,4.744 l 9.471,0 z" id="logo-tudelft-path3321"/> </g> <path d="m 442.53666,436.93198 -10.3227,0 0,-78.38287 10.3227,0 0,78.38287 z" id="logo-tudelft-path3323"/> <g transform="matrix(4.0963091,0,0,4.0963091,143.55443,358.55402)" id="logo-tudelft-g3325"> <path d="m 0,0 5.301,0 0,15.421 5.938,0 0,3.712 -17.177,0 0,-3.712 5.938,0 L 0,0 z" id="logo-tudelft-path3327"/> </g> <g transform="matrix(4.0963091,0,0,4.0963091,195.71233,475.09402)" id="logo-tudelft-g3329"> <path d="M 0,0 C -1.292,-0.406 -2.626,-0.081 -2.623,1.649 -2.621,4.285 3.57,6.495 4.428,8.798 4.641,9.372 4.654,9.845 4.379,9.83 4.182,9.819 4.336,9.533 3.903,9.098 1.338,6.533 -2.958,6.537 -6.255,5.06 c -2.162,-0.971 -8.498,-3.952 -7.04,-10.603 0.07,-0.315 0.258,-1.374 0.452,-1.374 0.224,0 0.222,0.629 0.216,1.393 -0.048,3.96 4.641,5.064 6.167,7.651 0.182,0.31 0.498,0.744 0.573,0.542 0.036,-0.097 0.013,-0.241 -0.049,-0.516 -0.478,-2.126 -2.701,-3.491 -2.071,-5.01 0.816,-1.973 3.174,-0.502 3.897,0.766 0.194,0.349 0.303,0.572 0.433,0.527 0.097,-0.034 0.094,-0.435 0.033,-0.795 -0.387,-2.288 -0.913,-3.573 -2.588,-4.875 -0.535,-0.417 -1.378,-0.504 -1.267,-0.824 0.028,-0.083 0.391,-0.074 0.68,-0.045 C -2.36,-7.818 1.37,-2.56 2.358,0.874 2.461,1.116 2.493,1.343 2.383,1.428 2.249,1.532 2.053,1.293 1.854,1.117 1.344,0.669 0.645,0.203 0,0" id="logo-tudelft-path3331"/> </g> <g transform="matrix(4.0963091,0,0,4.0963091,474.87579,358.55402)" id="logo-tudelft-g3333"> <path d="m 0,0 0,11.551 3.072,0 0,1.752 -3.072,0 0,2.148 c 0,1.538 0.74,1.802 2.174,1.802 0.422,0 0.847,-0.055 1.271,-0.078 l 0,2.091 c -0.59,0.134 -1.191,0.265 -1.803,0.265 -2.384,0 -4.162,-1.195 -4.162,-3.742 l 0,-2.486 -2.595,0 0,-1.752 2.595,0 L -2.52,0 0,0 z" id="logo-tudelft-path3335"/> </g> <g transform="matrix(4.0963091,0,0,4.0963091,493.39111,413.04722)" id="logo-tudelft-g3337"> <path d="m 0,0 0,-1.752 2.28,0 0,-8.478 c 0,-1.77 0.025,-3.47 3.766,-3.47 0.582,0 1.129,0.054 1.721,0.158 l 0,1.935 c -0.409,-0.099 -0.927,-0.16 -1.325,-0.16 -0.902,0 -1.642,0.453 -1.642,1.405 l 0,8.61 3.074,0 L 7.874,0 4.8,0 4.8,3.631 2.28,2.836 2.28,-0.002 0,0 z" id="logo-tudelft-path3339"/> </g> <g transform="matrix(4.0963091,0,0,4.0963091,296.45695,358.55402)" id="logo-tudelft-g3341"> <path d="m 0,0 6.573,0 c 8.184,0 9.043,6.926 9.043,9.566 0,2.638 -0.859,9.568 -9.043,9.568 L 0,19.134 0,0 z m 2.655,16.856 3.919,0 c 4.423,0 6.258,-3.337 6.258,-7.29 0,-3.954 -1.835,-7.288 -6.258,-7.288 l -3.919,0 0,14.578 z" id="logo-tudelft-path3343"/> </g> </g> </g> </symbol></svg>