<?xml version="1.0" encoding="utf-8"?>
<!-- Generator: Adobe Illustrator 16.0.0, SVG Export Plug-In . SVG Version: 6.00 Build 0)  -->
<!DOCTYPE svg PUBLIC "-//W3C//DTD SVG 1.1//EN" "http://www.w3.org/Graphics/SVG/1.1/DTD/svg11.dtd">
<svg version="1.1"
	 id="svg3149" xmlns:svg="http://www.w3.org/2000/svg" xmlns:rdf="http://www.w3.org/1999/02/22-rdf-syntax-ns#" xmlns:cc="http://creativecommons.org/ns#" xmlns:dc="http://purl.org/dc/elements/1.1/"
	 xmlns="http://www.w3.org/2000/svg" xmlns:xlink="http://www.w3.org/1999/xlink" x="0px" y="0px" width="510.018px"
	 height="200.043px" viewBox="0 0 510.018 200.043" enable-background="new 0 0 510.018 200.043" xml:space="preserve">
<g id="layer1" transform="translate(-125.99068,-413.3407)">
	<g id="g3165" transform="matrix(1.25,0,0,-1.25,-22.0475,1058.5434)">
		<g id="g3315" transform="matrix(4.0963091,0,0,4.0963091,237.27758,372.13738)">
			<path id="path3317" fill="#FFFFFF" d="M0,0c2.492,0,3.846,1.654,3.846,3.976v11.842h5.3V3.712C9.094-1.618,4.825-3.71,0-3.71
				c-4.825,0-9.094,2.092-9.147,7.422v12.106h5.301V3.976C-3.846,1.654-2.492,0,0,0"/>
		</g>
		<g id="g3319" transform="matrix(4.0963091,0,0,4.0963091,381.13995,391.02137)">
			<path id="path3321" fill="#FFFFFF" d="M0,0c0.018,2.075,1.274,3.95,3.37,3.95c2.438,0,3.391-1.671,3.391-3.95H0z M9.414-1.75
				v1.247c0,3.684-2.086,6.283-5.86,6.283c-4.214,0-6.177-3.261-6.177-7.158c0-3.924,1.698-6.945,5.966-6.945
				c3.181,0,5.514,1.509,5.912,4.532h-2.65C6.312-5.726,5.332-6.494,3.37-6.494c-2.573,0-3.427,2.288-3.427,4.744H9.414z"/>
		</g>
		<path id="path3323" fill="#FFFFFF" d="M442.536,436.932h-10.323V358.55h10.323V436.932z"/>
		<g id="g3325" transform="matrix(4.0963091,0,0,4.0963091,143.55443,358.55402)">
			<path id="path3327" fill="#FFFFFF" d="M0,0h5.301v15.421h5.938v3.712H-5.938v-3.712H0V0z"/>
		</g>
		<g id="g3329" transform="matrix(4.0963091,0,0,4.0963091,195.71233,475.09402)">
			<path id="path3331" fill="#FFFFFF" d="M0,0c-1.292-0.406-2.626-0.081-2.623,1.649c0.002,2.636,6.193,4.846,7.051,7.149
				C4.641,9.372,4.654,9.845,4.379,9.83C4.182,9.819,4.336,9.533,3.903,9.098C1.338,6.533-2.958,6.537-6.255,5.06
				c-2.162-0.971-8.498-3.952-7.04-10.603c0.07-0.315,0.258-1.374,0.452-1.374c0.224,0,0.222,0.629,0.216,1.393
				c-0.048,3.96,4.641,5.064,6.167,7.651c0.182,0.31,0.498,0.744,0.573,0.542c0.036-0.097,0.013-0.241-0.049-0.516
				c-0.478-2.126-2.701-3.491-2.071-5.01C-7.191-4.83-4.833-3.359-4.11-2.091c0.194,0.349,0.303,0.572,0.433,0.527
				c0.097-0.034,0.094-0.435,0.033-0.795c-0.387-2.288-0.913-3.573-2.588-4.875C-6.767-7.651-7.61-7.738-7.499-8.058
				c0.028-0.083,0.391-0.074,0.68-0.045C-2.36-7.818,1.37-2.56,2.358,0.874c0.103,0.242,0.135,0.469,0.025,0.554
				c-0.134,0.104-0.33-0.135-0.529-0.311C1.344,0.669,0.645,0.203,0,0"/>
		</g>
		<g id="g3333" transform="matrix(4.0963091,0,0,4.0963091,474.87579,358.55402)">
			<path id="path3335" fill="#FFFFFF" d="M0,0v11.551h3.072v1.752H0v2.148c0,1.538,0.74,1.802,2.174,1.802
				c0.422,0,0.847-0.055,1.271-0.078v2.091c-0.59,0.134-1.191,0.265-1.803,0.265c-2.384,0-4.162-1.195-4.162-3.742v-2.486h-2.595
				v-1.752h2.595V0H0z"/>
		</g>
		<g id="g3337" transform="matrix(4.0963091,0,0,4.0963091,493.39111,413.04722)">
			<path id="path3339" fill="#FFFFFF" d="M0,0v-1.752h2.28v-8.478c0-1.77,0.025-3.47,3.766-3.47c0.582,0,1.129,0.054,1.721,0.158
				v1.935c-0.409-0.099-0.927-0.16-1.325-0.16c-0.902,0-1.642,0.453-1.642,1.405v8.61h3.074V0H4.8v3.631L2.28,2.836v-2.838L0,0z"/>
		</g>
		<g id="g3341" transform="matrix(4.0963091,0,0,4.0963091,296.45695,358.55402)">
			<path id="path3343" fill="#FFFFFF" d="M0,0h6.573c8.184,0,9.043,6.926,9.043,9.566c0,2.638-0.859,9.568-9.043,9.568H0V0z
				 M2.655,16.856h3.919c4.423,0,6.258-3.337,6.258-7.29c0-3.954-1.835-7.288-6.258-7.288H2.655V16.856z"/>
		</g>
	</g>
</g>
</svg>
