<?xml version="1.0" encoding="utf-8"?>
<!-- Generator: Adobe Illustrator 16.0.0, SVG Export Plug-In . SVG Version: 6.00 Build 0)  -->
<!DOCTYPE svg PUBLIC "-//W3C//DTD SVG 1.1//EN" "http://www.w3.org/Graphics/SVG/1.1/DTD/svg11.dtd">
<svg version="1.1" id="Layer_1" xmlns="http://www.w3.org/2000/svg" xmlns:xlink="http://www.w3.org/1999/xlink" x="0px" y="0px"
	 width="1984.25px" height="708.284px" viewBox="0 1076.965 1984.25 708.284" enable-background="new 0 1076.965 1984.25 708.284"
	 xml:space="preserve">
<path fill="#FFFFFF" d="M267.315,1269.704h-98.414v275.294H98.414v-275.294H0v-57.188h267.314V1269.704z"/>
<path fill="#FFFFFF" d="M212.788,1427.965c0-75.806,45.218-122.354,118.363-122.354c70.485,0,117.033,45.218,117.033,122.354
	c0,75.806-47.877,122.354-118.363,122.354C258.006,1550.318,212.788,1503.77,212.788,1427.965z M284.604,1427.965
	c0,45.218,13.3,75.806,46.548,75.806c34.578,0,46.547-33.248,46.547-75.806c0-45.218-11.969-75.806-46.547-75.806
	C296.573,1353.489,284.604,1385.407,284.604,1427.965z"/>
<path fill="#FFFFFF" d="M696.881,1544.998h-66.496v-34.578h-1.33c-11.97,19.949-33.248,39.898-69.156,39.898
	c-61.177,0-98.414-38.568-98.414-119.693c0-82.456,43.887-123.684,101.074-123.684c29.258,0,53.197,13.3,63.836,35.908h1.33
	v-139.643h69.156V1544.998z M629.055,1418.655c0-41.228-18.619-63.836-46.548-63.836c-30.588,0-49.207,23.938-49.207,74.476
	c0,47.877,14.629,74.476,47.878,74.476c31.918,0,47.877-25.269,47.877-58.517V1418.655L629.055,1418.655z"/>
<path fill="#FFFFFF" d="M723.48,1381.417c2.66-46.547,39.897-74.476,99.744-74.476c74.476,0,101.075,30.589,101.075,93.095v79.796
	c0,11.97,3.989,17.289,18.618,17.289v47.877h-22.608c-33.248,0-49.207-6.649-57.187-31.918h-1.33
	c-14.63,21.279-37.238,34.578-70.486,34.578c-47.877,0-78.466-25.269-78.466-69.156c0-26.599,11.97-46.548,34.578-58.517
	c25.269-13.299,59.847-14.629,109.054-17.289v-11.97c0-25.269-10.639-38.567-34.577-38.567c-22.609,0-33.249,11.969-34.578,29.258
	H723.48L723.48,1381.417z M857.802,1446.584v-7.979c-35.907,2.659-54.526,5.319-65.166,11.969c-7.979,5.32-10.64,13.3-10.64,23.939
	c0,17.288,11.97,29.258,30.588,29.258C835.194,1503.77,857.802,1485.151,857.802,1446.584z"/>
<path fill="#FFFFFF" d="M926.958,1312.26h70.486l38.567,122.354c7.98,25.269,10.64,45.218,10.64,45.218h1.33
	c0,0,2.66-19.949,9.31-45.218l35.908-122.354h66.496l-81.126,239.388c-18.618,54.526-41.228,78.465-101.074,78.465
	c-22.608,0-33.248-2.659-34.578-2.659v-50.537c3.99,1.329,13.3,2.659,23.938,2.659c26.6,0,38.568-7.979,45.218-27.928l1.33-5.32
	L926.958,1312.26z"/>
<path fill="#FFFFFF" d="M1283.379,1377.427c-1.33-14.629-11.97-26.599-33.249-26.599c-21.278,0-31.918,10.64-31.918,23.938
	c0,13.3,6.649,21.279,26.599,23.938l39.897,5.32c42.558,5.319,66.497,26.599,66.497,67.826c0,51.867-42.559,79.796-101.075,79.796
	c-69.155,0-98.414-31.919-102.404-74.477h63.837c1.33,15.959,11.97,29.259,38.568,29.259c22.608,0,37.237-9.31,37.237-25.269
	c0-13.3-6.649-21.279-27.929-23.938l-37.237-5.32c-43.888-6.649-67.826-27.929-67.826-69.156c0-39.897,30.588-75.806,95.755-75.806
	c61.176,0,90.435,29.259,93.095,70.486H1283.379L1283.379,1377.427z"/>
<path fill="#FFFFFF" d="M1574.633,1470.522H1452.28l-23.939,73.146h-67.826l115.704-331.151h79.796l117.033,331.151h-74.476
	L1574.633,1470.522z M1500.156,1322.9l-30.588,97.085h87.775l-30.589-97.085c-9.31-29.258-11.97-47.877-11.97-47.877h-1.33
	C1513.455,1276.353,1509.466,1294.971,1500.156,1322.9z"/>
<path fill="#FFFFFF" d="M1685.016,1312.26h65.167v49.208h1.33c13.299-34.578,45.218-50.537,77.136-50.537h3.989v54.526h-11.969
	c-42.558,0-66.497,19.949-66.497,63.837v114.373h-67.826V1312.26H1685.016z"/>
<path fill="#FFFFFF" d="M1932.383,1247.094v63.837h51.867v55.856h-50.537v97.085c0,23.938,9.309,33.248,31.918,33.248
	c7.979,0,19.948-1.33,19.948-1.33v50.537c-9.31,1.33-26.599,2.66-46.548,2.66c-45.217,0-73.146-19.949-73.146-71.816v-110.384
	h-34.578v-55.856h7.979c29.259,0,34.578-3.99,34.578-46.548v-17.289H1932.383z"/>
</svg>
