<?xml version="1.0" encoding="utf-8"?>
<!-- Generator: Adobe Illustrator 16.0.0, SVG Export Plug-In . SVG Version: 6.00 Build 0)  -->
<!DOCTYPE svg PUBLIC "-//W3C//DTD SVG 1.1//EN" "http://www.w3.org/Graphics/SVG/1.1/DTD/svg11.dtd">
<svg version="1.1" id="Layer_1" xmlns="http://www.w3.org/2000/svg" xmlns:xlink="http://www.w3.org/1999/xlink" x="0px" y="0px"
	 width="160.667px" height="196.331px" viewBox="0 0 160.667 196.331" enable-background="new 0 0 160.667 196.331"
	 xml:space="preserve">
<polygon fill="#FFFFFF" points="137.461,119.938 137.461,5.98 110.941,5.98 80.884,87.147 50.989,5.98 23.023,5.98 23.023,119.938 
	43.113,119.938 43.113,37.644 72.528,118.329 87.796,118.329 117.371,38.608 117.371,119.938 137.461,119.938 "/>
<path fill="#FFFFFF" d="M137.904,156.342v-8.175c0-2.546-1.531-4.381-4.149-4.381c-1.413,0-2.874,0.587-3.603,1.882l-0.213-1.576
	h-2.474v12.25h2.944v-4.994c0-1.037-0.023-2.31,0.401-3.275c0.4-0.895,1.083-1.557,2.119-1.557c1.556,0,2.027,0.873,2.027,2.311
	v7.516H137.904L137.904,156.342z M120.964,151.464c0,1.815-1.297,2.804-3.134,2.804c-0.92,0-1.742-0.588-1.742-1.531
	c0-0.988,0.87-1.53,1.766-1.602l3.11-0.234V151.464L120.964,151.464z M124.898,156.2v-2.168c0,0-0.189,0.049-0.378,0.049
	c-0.495,0-0.682-0.215-0.682-0.777v-4.548c0-0.823-0.047-1.694-0.353-2.474c-0.709-1.838-2.5-2.495-4.595-2.495
	c-2.735,0-4.925,1.224-5.089,3.978h2.85c0.071-1.129,0.873-1.742,2.239-1.742c1.673,0,2.072,0.779,2.072,1.934v0.753l-3.604,0.259
	c-2.332,0.166-4.147,1.508-4.147,3.842c0,2.002,1.508,3.84,4.43,3.84c1.744,0,3.157-0.848,3.722-1.838
	c0.096,0.918,0.804,1.719,2.073,1.719C124.144,156.53,124.402,156.413,124.898,156.2 M107.723,151.464
	c0,1.815-1.295,2.804-3.133,2.804c-0.919,0-1.742-0.588-1.742-1.531c0-0.988,0.871-1.53,1.766-1.602l3.109-0.234V151.464
	L107.723,151.464z M111.658,156.2v-2.168c0,0-0.188,0.049-0.377,0.049c-0.496,0-0.685-0.215-0.685-0.777v-4.548
	c0-0.823-0.046-1.694-0.353-2.474c-0.707-1.838-2.498-2.495-4.594-2.495c-2.732,0-4.925,1.224-5.089,3.978h2.851
	c0.07-1.129,0.871-1.742,2.238-1.742c1.672,0,2.072,0.779,2.072,1.934v0.753l-3.604,0.259c-2.334,0.166-4.146,1.508-4.146,3.842
	c0,2.002,1.508,3.84,4.428,3.84c1.743,0,3.159-0.848,3.725-1.838c0.093,0.918,0.8,1.719,2.072,1.719
	C110.904,156.53,111.162,156.413,111.658,156.2 M97.285,144.092h-2.991v12.25h2.991V144.092L97.285,144.092z M97.357,139.356h-3.158
	v3.039h3.158V139.356L97.357,139.356z M92.081,146.823v-2.826c-0.308-0.047-0.613-0.07-0.919-0.07c-1.439,0-2.898,0.59-3.463,2.002
	l-0.26-1.836h-2.498v12.25h2.969v-6.173c0-1.981,1.084-3.463,3.158-3.463C91.396,146.707,91.75,146.752,92.081,146.823
	 M78.464,150.192c0,1.769-0.472,3.959-2.781,3.959c-0.918,0-1.555-0.424-1.979-0.967c-0.612-0.799-0.777-1.931-0.777-2.992
	c0-1.059,0.165-2.168,0.777-2.969c0.424-0.541,1.061-0.963,1.979-0.963C77.992,146.26,78.464,148.426,78.464,150.192
	 M81.266,156.342v-17.011h-2.945v5.608c-0.517-0.637-1.649-1.153-3.202-1.153c-1.249,0-2.239,0.376-2.994,0.987
	c-1.46,1.201-2.19,3.063-2.19,5.465c0,2.311,0.707,4.148,2.167,5.349c0.754,0.612,1.768,1.037,2.993,1.037
	c1.342,0,2.709-0.494,3.439-1.625l0.188,1.343H81.266L81.266,156.342z M67.296,156.342v-8.175c0-2.546-1.532-4.381-4.146-4.381
	c-1.413,0-2.875,0.587-3.604,1.882l-0.213-1.576h-2.474v12.25h2.945v-4.994c0-1.037-0.023-2.31,0.401-3.275
	c0.401-0.895,1.084-1.557,2.12-1.557c1.556,0,2.027,0.873,2.027,2.311v7.516H67.296L67.296,156.342z M51.04,150.215
	c0,1.155-0.164,2.311-0.871,3.088c-0.401,0.424-1.06,0.777-1.861,0.777c-0.801,0-1.461-0.354-1.862-0.777
	c-0.705-0.777-0.872-1.933-0.872-3.088c0-1.152,0.167-2.307,0.872-3.086c0.401-0.423,1.061-0.775,1.862-0.775
	c0.801,0,1.46,0.353,1.861,0.775C50.876,147.909,51.04,149.063,51.04,150.215 M54.033,150.215c0-2.072-0.519-3.367-1.437-4.523
	c-0.849-1.035-2.427-1.905-4.288-1.905c-1.862,0-3.439,0.87-4.287,1.905c-0.92,1.156-1.439,2.451-1.439,4.523
	c0,2.073,0.519,3.369,1.439,4.523c0.848,1.037,2.425,1.91,4.287,1.91c1.861,0,3.439-0.873,4.288-1.91
	C53.514,153.584,54.033,152.289,54.033,150.215 M39.944,156.342v-8.27c0-2.545-1.366-4.286-3.982-4.286
	c-1.648,0-2.968,0.729-3.698,2.001c-0.612-1.249-1.791-2.001-3.51-2.001c-1.626,0-2.804,0.799-3.487,1.931l-0.236-1.625H22.58v12.25
	h2.922v-6.691c0-1.531,0.754-3.297,2.427-3.297c1.485,0,1.885,0.869,1.885,2.379v7.609h2.922v-6.691c0-1.531,0.73-3.297,2.402-3.297
	c1.484,0,1.885,0.869,1.885,2.379v7.609H39.944L39.944,156.342z"/>
<polygon fill="#FFFFFF" points="141.484,161.883 19,161.883 19,159.405 141.484,159.405 141.484,161.883 "/>
<polygon fill="#FFFFFF" points="109.353,191.698 52.548,191.698 52.548,189.221 109.353,189.221 109.353,191.698 "/>
<path fill="#FFFFFF" d="M64.601,171.069v-2.354c-0.919-0.189-1.461-0.259-2.309-0.259c-2.638,0-4.168,1.601-4.168,3.862v1.18h-2.073
	v2.424h2.073v9.825h2.942v-9.825h3.275v-2.424h-3.275v-1.133c0-0.872,0.542-1.485,1.603-1.485
	C63.446,170.88,63.988,170.95,64.601,171.069L64.601,171.069z M76.688,185.748v-12.249h-2.943v6.479
	c0,0.988-0.188,2.096-0.895,2.756c-0.354,0.354-0.826,0.613-1.509,0.613c-1.556,0-2.122-0.895-2.122-2.332v-7.516h-2.943v8.176
	c0,2.614,1.625,4.379,4.239,4.379c1.556,0,2.924-0.705,3.513-1.906l0.212,1.601H76.688L76.688,185.748z M90.523,185.748v-8.177
	c0-2.543-1.531-4.379-4.146-4.379c-1.414,0-2.876,0.588-3.607,1.883l-0.211-1.576h-2.472v12.249h2.941v-4.994
	c0-1.036-0.022-2.308,0.401-3.274c0.401-0.897,1.085-1.557,2.122-1.557c1.557,0,2.028,0.871,2.028,2.309v7.517H90.523
	L90.523,185.748z M104.433,185.748v-17.009h-2.942v5.607c-0.519-0.637-1.649-1.154-3.205-1.154c-1.25,0-2.24,0.377-2.993,0.988
	c-1.459,1.2-2.189,3.063-2.189,5.467c0,2.31,0.706,4.147,2.166,5.348c0.753,0.611,1.767,1.035,2.992,1.035
	c1.345,0,2.711-0.494,3.442-1.623l0.188,1.341H104.433L104.433,185.748z M101.632,179.6c0,1.768-0.472,3.959-2.781,3.959
	c-0.92,0-1.556-0.424-1.981-0.967c-0.611-0.801-0.776-1.934-0.776-2.992c0-1.062,0.165-2.17,0.776-2.971
	c0.426-0.542,1.062-0.966,1.981-0.966C101.16,175.664,101.632,177.832,101.632,179.6L101.632,179.6z"/>
</svg>
