<?xml version="1.0" encoding="UTF-8" standalone="no"?>
<!-- Created with Inkscape (http://www.inkscape.org/) -->

<svg
   xmlns:dc="http://purl.org/dc/elements/1.1/"
   xmlns:cc="http://creativecommons.org/ns#"
   xmlns:rdf="http://www.w3.org/1999/02/22-rdf-syntax-ns#"
   xmlns:svg="http://www.w3.org/2000/svg"
   xmlns="http://www.w3.org/2000/svg"
   xmlns:sodipodi="http://sodipodi.sourceforge.net/DTD/sodipodi-0.dtd"
   xmlns:inkscape="http://www.inkscape.org/namespaces/inkscape"
   version="1.1"
   id="svg2"
   xml:space="preserve"
   width="163.312"
   height="247.62267"
   viewBox="0 0 163.31199 247.62267"
   sodipodi:docname="mondriaan-white.svg"
   inkscape:version="0.92.2 5c3e80d, 2017-08-06"><metadata
     id="metadata8"><rdf:RDF><cc:Work
         rdf:about=""><dc:format>image/svg+xml</dc:format><dc:type
           rdf:resource="http://purl.org/dc/dcmitype/StillImage" /><dc:title></dc:title></cc:Work></rdf:RDF></metadata><defs
     id="defs6" /><sodipodi:namedview
     pagecolor="#ffffff"
     bordercolor="#666666"
     borderopacity="1"
     objecttolerance="10"
     gridtolerance="10"
     guidetolerance="10"
     inkscape:pageopacity="0"
     inkscape:pageshadow="2"
     inkscape:window-width="1440"
     inkscape:window-height="855"
     id="namedview4"
     showgrid="false"
     fit-margin-top="0"
     fit-margin-left="0"
     fit-margin-right="0"
     fit-margin-bottom="0"
     inkscape:zoom="0.29733907"
     inkscape:cx="360.51868"
     inkscape:cy="-42.485318"
     inkscape:window-x="0"
     inkscape:window-y="1"
     inkscape:window-maximized="1"
     inkscape:current-layer="g12" /><g
     id="g10"
     inkscape:groupmode="layer"
     inkscape:label="ink_ext_XXXXXX"
     transform="matrix(1.3333333,0,0,-1.3333333,-200.74133,686.96132)"><g
       id="g12"
       transform="scale(0.1)"><path
         d="m 2690.17,4012.64 v 1139.57 h -265.2 L 2124.4,4340.54 1825.45,5152.21 H 1545.79 V 4012.64 h 200.9 v 822.94 l 294.15,-806.85 h 152.68 l 295.75,797.2 v -813.29 h 200.9"
         style="fill:#ffffff;fill-opacity:1;fill-rule:nonzero;stroke:none"
         id="path14"
         inkscape:connector-curvature="0" /><path
         d="m 2423.29,3392.46 c 0,19.32 -14.13,31.57 -33.45,34.63 -12.01,1.89 -15.08,2.12 -26.14,3.53 -6.61,0.95 -14.15,3.55 -14.15,12.25 0,6.37 4.23,10.85 9.42,12.97 4.49,1.88 8.49,1.88 12.73,1.88 6.13,0 12.49,-2.13 16,-5.66 2.83,-3.06 4.98,-6.83 4.98,-11.54 h 28.01 c 0,8.95 -4.24,18.14 -10.82,25.21 -8.96,9.66 -23.8,14.37 -38.41,14.37 -15.3,0 -28.27,-4.48 -37.22,-12.26 -7.31,-6.35 -12.48,-15.07 -12.48,-27.56 0,-15.54 11.31,-29.21 28.02,-32.73 10.85,-2.36 23.1,-3.08 33.93,-4.73 7.53,-1.18 12.25,-5.88 12.25,-12.96 0,-13.42 -15.08,-15.54 -24.98,-15.54 -8.48,0 -13.89,1.65 -18.6,5.41 -3.78,3.07 -6.61,8.96 -6.61,14.38 h -27.56 c 0,-11.55 5.89,-21.67 12.97,-28.5 10.12,-9.67 24.03,-14.14 39.57,-14.14 16.72,0 32.05,4.24 41.94,14.14 6.37,6.36 10.6,15.06 10.6,26.85 m -159.96,23.57 c 0,-17.69 -4.71,-39.59 -27.8,-39.59 -9.2,0 -15.57,4.23 -19.8,9.65 -6.12,8.02 -7.78,19.33 -7.78,29.94 0,10.58 1.66,21.66 7.78,29.67 4.23,5.42 10.6,9.67 19.8,9.67 23.09,0 27.8,-21.67 27.8,-39.34 m 28.02,-61.5 v 170.1 h -29.45 v -56.07 c -5.17,6.37 -16.49,11.54 -32.03,11.54 -12.48,0 -22.39,-3.76 -29.93,-9.89 -14.6,-12.02 -21.9,-30.62 -21.9,-54.67 0,-23.08 7.07,-41.46 21.66,-53.46 7.56,-6.14 17.69,-10.38 29.95,-10.38 13.41,0 27.08,4.95 34.38,16.27 l 1.88,-13.44 z m -139.69,0 v 81.74 c 0,25.45 -15.31,43.83 -41.47,43.83 -14.13,0 -28.75,-5.89 -36.04,-18.85 l -2.14,15.79 h -24.73 v -122.51 h 29.45 v 49.94 c 0,10.38 -0.23,23.09 4.01,32.75 4,8.96 10.84,15.55 21.2,15.55 15.55,0 20.26,-8.71 20.26,-23.07 v -75.17 z m -162.56,61.26 c 0,-11.55 -1.66,-23.09 -8.72,-30.87 -4,-4.25 -10.6,-7.78 -18.61,-7.78 -8.01,0 -14.6,3.53 -18.61,7.78 -7.07,7.78 -8.72,19.32 -8.72,30.87 0,11.54 1.65,23.08 8.72,30.86 4.01,4.23 10.6,7.78 18.61,7.78 8.01,0 14.61,-3.55 18.61,-7.78 7.06,-7.78 8.72,-19.32 8.72,-30.86 m 29.92,0 c 0,20.73 -5.19,33.68 -14.38,45.22 -8.48,10.37 -24.26,19.09 -42.87,19.09 -18.61,0 -34.4,-8.72 -42.88,-19.09 -9.19,-11.54 -14.37,-24.49 -14.37,-45.22 0,-20.73 5.18,-33.7 14.37,-45.23 8.48,-10.38 24.27,-19.09 42.88,-19.09 18.61,0 34.39,8.71 42.87,19.09 9.19,11.53 14.38,24.5 14.38,45.23 m -120.83,85.52 v 23.56 c -9.18,1.89 -14.61,2.58 -23.1,2.58 -26.38,0 -41.69,-16.02 -41.69,-38.64 v -11.77 h -20.73 v -24.27 h 20.73 v -98.24 h 29.45 v 98.24 h 32.75 v 24.27 h -32.75 v 11.3 c 0,8.73 5.42,14.84 16.01,14.84 7.79,0 13.21,-0.7 19.33,-1.87"
         style="fill:#ffffff;fill-opacity:1;fill-rule:nonzero;stroke:none"
         id="path16"
         inkscape:connector-curvature="0" /><path
         d="m 2694.6,3648.6 v 81.74 c 0,25.46 -15.31,43.81 -41.49,43.81 -14.13,0 -28.74,-5.87 -36.02,-18.82 l -2.14,15.77 h -24.73 v -122.5 h 29.45 v 49.94 c 0,10.36 -0.24,23.09 4.01,32.75 4,8.95 10.83,15.56 21.19,15.56 15.56,0 20.27,-8.72 20.27,-23.1 v -75.15 z m -169.4,48.77 c 0,-18.15 -12.97,-28.04 -31.34,-28.04 -9.19,0 -17.42,5.88 -17.42,15.31 0,9.89 8.7,15.31 17.66,16.02 l 31.1,2.35 z m 39.35,-47.36 v 21.68 c 0,0 -1.9,-0.48 -3.78,-0.48 -4.95,0 -6.82,2.14 -6.82,7.78 v 45.47 c 0,8.24 -0.47,16.95 -3.53,24.73 -7.09,18.38 -24.99,24.96 -45.94,24.96 -27.35,0 -49.25,-12.23 -50.89,-39.78 h 28.49 c 0.72,11.29 8.73,17.42 22.4,17.42 16.72,0 20.72,-7.78 20.72,-19.33 v -7.53 l -36.05,-2.58 c -23.31,-1.67 -41.47,-15.09 -41.47,-38.42 0,-20.03 15.08,-38.41 44.3,-38.41 17.44,0 31.57,8.49 37.22,18.38 0.95,-9.18 8.03,-17.18 20.73,-17.18 7.07,0 9.66,1.17 14.62,3.29 m -171.76,47.36 c 0,-18.15 -12.95,-28.04 -31.33,-28.04 -9.19,0 -17.42,5.88 -17.42,15.31 0,9.89 8.71,15.31 17.65,16.02 l 31.1,2.35 z m 39.35,-47.36 v 21.68 c 0,0 -1.88,-0.48 -3.76,-0.48 -4.96,0 -6.85,2.14 -6.85,7.78 v 45.47 c 0,8.24 -0.46,16.95 -3.53,24.73 -7.06,18.38 -24.97,24.96 -45.94,24.96 -27.32,0 -49.24,-12.23 -50.88,-39.78 h 28.51 c 0.7,11.29 8.71,17.42 22.37,17.42 16.72,0 20.73,-7.78 20.73,-19.33 v -7.53 l -36.04,-2.58 c -23.33,-1.67 -41.46,-15.09 -41.46,-38.42 0,-20.03 15.07,-38.41 44.28,-38.41 17.43,0 31.59,8.49 37.24,18.38 0.93,-9.18 8,-17.18 20.72,-17.18 7.07,0 9.66,1.17 14.61,3.29 m -143.72,121.09 h -29.92 v -122.5 h 29.92 z m 0.71,47.36 h -31.57 v -30.39 h 31.57 z m -52.76,-74.68 v 28.27 c -3.07,0.47 -6.13,0.7 -9.19,0.7 -14.39,0 -28.98,-5.89 -34.62,-20.02 l -2.61,18.37 h -24.97 v -122.5 h 29.68 v 61.72 c 0,19.81 10.84,34.63 31.58,34.63 3.29,0 6.82,-0.46 10.13,-1.17 M 2100.2,3710.1 c 0,-17.69 -4.72,-39.59 -27.81,-39.59 -9.18,0 -15.55,4.24 -19.79,9.66 -6.12,8 -7.77,19.31 -7.77,29.93 0,10.58 1.65,21.67 7.77,29.68 4.24,5.41 10.61,9.64 19.79,9.64 23.09,0 27.81,-21.67 27.81,-39.32 m 28.02,-61.5 v 170.1 h -29.45 v -56.08 c -5.17,6.37 -16.49,11.53 -32.02,11.53 -12.49,0 -22.39,-3.76 -29.94,-9.87 -14.6,-12.01 -21.9,-30.64 -21.9,-54.66 0,-23.1 7.07,-41.47 21.67,-53.48 7.54,-6.13 17.68,-10.37 29.93,-10.37 13.42,0 27.09,4.94 34.39,16.25 l 1.88,-13.42 z m -139.7,0 v 81.74 c 0,25.46 -15.32,43.81 -41.46,43.81 -14.13,0 -28.75,-5.87 -36.04,-18.82 l -2.13,15.77 h -24.74 v -122.5 h 29.45 v 49.94 c 0,10.36 -0.23,23.09 4.01,32.75 4.01,8.95 10.84,15.56 21.2,15.56 15.56,0 20.27,-8.72 20.27,-23.1 v -75.15 z m -162.56,61.26 c 0,-11.55 -1.64,-23.1 -8.71,-30.87 -4.01,-4.24 -10.6,-7.78 -18.61,-7.78 -8.01,0 -14.62,3.54 -18.62,7.78 -7.05,7.77 -8.72,19.32 -8.72,30.87 0,11.53 1.67,23.07 8.72,30.86 4,4.23 10.61,7.76 18.62,7.76 8.01,0 14.6,-3.53 18.61,-7.76 7.07,-7.79 8.71,-19.33 8.71,-30.86 m 29.93,0 c 0,20.73 -5.19,33.68 -14.37,45.23 -8.49,10.36 -24.27,19.06 -42.88,19.06 -18.62,0 -34.39,-8.7 -42.87,-19.06 -9.2,-11.55 -14.39,-24.5 -14.39,-45.23 0,-20.73 5.19,-33.69 14.39,-45.24 8.48,-10.36 24.25,-19.1 42.87,-19.1 18.61,0 34.39,8.74 42.88,19.1 9.18,11.55 14.37,24.51 14.37,45.24 M 1715,3648.6 v 82.69 c 0,25.45 -13.66,42.86 -39.82,42.86 -16.48,0 -29.68,-7.29 -36.98,-20.01 -6.12,12.49 -17.91,20.01 -35.1,20.01 -16.26,0 -28.04,-7.99 -34.87,-19.31 l -2.36,16.26 h -24.51 v -122.5 h 29.22 v 66.91 c 0,15.31 7.54,32.97 24.26,32.97 14.86,0 18.86,-8.7 18.86,-23.79 v -76.09 h 29.21 v 66.91 c 0,15.31 7.31,32.97 24.03,32.97 14.84,0 18.85,-8.7 18.85,-23.79 V 3648.6 H 1715"
         style="fill:#ffffff;fill-opacity:1;fill-rule:nonzero;stroke:none"
         id="path18"
         inkscape:connector-curvature="0" /><path
         d="M 1505.56,3593.19 H 2730.4 v 24.7695 H 1505.56 Z"
         style="fill:#ffffff;fill-opacity:1;fill-rule:nonzero;stroke:none"
         id="path20"
         inkscape:connector-curvature="0" /><path
         d="m 1764.62,3295.04 h 706.719 v 24.7695 H 1764.62 Z"
         style="fill:#ffffff;fill-opacity:1;fill-rule:nonzero;stroke:none"
         id="path22"
         inkscape:connector-curvature="0" /></g></g></svg>